<?xml version="1.0" encoding="UTF-8"?>
<svg xmlns="http://www.w3.org/2000/svg" width="1200" height="630" viewBox="0 0 1200 630">
  <defs>
    <linearGradient id="bg" x1="0" y1="0" x2="1" y2="1">
      <stop offset="0" stop-color="#0b0f17"/>
      <stop offset="1" stop-color="#121a2a"/>
    </linearGradient>
  </defs>
  <rect width="1200" height="630" fill="url(#bg)"/>
  <rect x="84" y="84" width="1032" height="462" rx="48" fill="#0b0f17" opacity="0.55"/>
  <g fill="#ffffff">
    <text x="120" y="260" font-family="system-ui, -apple-system, Segoe UI, Roboto, Arial, sans-serif" font-size="88" font-weight="800">NovaBoost</text>
    <text x="120" y="340" font-family="system-ui, -apple-system, Segoe UI, Roboto, Arial, sans-serif" font-size="38" font-weight="500" opacity="0.9">Покупка и активация лицензии</text>
  </g>
  <g transform="translate(920 200)">
    <rect width="196" height="196" rx="44" fill="#0b0f17" opacity="0.9"/>
    <path d="M52 148V48h44c24 0 40 12 40 32 0 12-6 22-18 26 16 4 24 14 24 30 0 22-16 36-42 36H52zm32-64h12c10 0 16-6 16-14 0-8-6-12-16-12H84v26zm0 34h16c12 0 18-6 18-16 0-10-6-16-18-16H84v32z" fill="#ffffff"/>
  </g>
</svg>
